<mxfile host="65bd71144e">
    <diagram id="mNFGkS7w7EyEu26hPMA5" name="Page-1">
        <mxGraphModel dx="706" dy="680" grid="1" gridSize="10" guides="1" tooltips="1" connect="1" arrows="1" fold="1" page="1" pageScale="1" pageWidth="850" pageHeight="1100" math="0" shadow="0">
            <root>
                <mxCell id="0"/>
                <mxCell id="1" parent="0"/>
                <mxCell id="2" value="" style="whiteSpace=wrap;html=1;fillColor=#2BA283;strokeColor=none;fontColor=#ffffff;" vertex="1" parent="1">
                    <mxGeometry x="20" y="120" width="690" height="430" as="geometry"/>
                </mxCell>
                <mxCell id="3" value="&lt;font style=&quot;font-size: 41px;&quot; color=&quot;#ffffff&quot;&gt;rsync Examples&lt;/font&gt;" style="text;strokeColor=none;align=center;fillColor=none;html=1;verticalAlign=middle;whiteSpace=wrap;rounded=0;" vertex="1" parent="1">
                    <mxGeometry x="190" y="250" width="300" height="30" as="geometry"/>
                </mxCell>
                <mxCell id="5" value="" style="shape=singleArrow;direction=north;whiteSpace=wrap;html=1;fontSize=41;fontColor=#FFFFFF;fillColor=#FFFFFF;rotation=90;strokeColor=none;arrowWidth=0.3223895670572915;arrowSize=0.20571489560287637;" vertex="1" parent="1">
                    <mxGeometry x="317.01" y="57.23" width="60" height="549.3" as="geometry"/>
                </mxCell>
                <mxCell id="21" value="" style="group" vertex="1" connectable="0" parent="1">
                    <mxGeometry x="90" y="360" width="180.8" height="103.29999999999995" as="geometry"/>
                </mxCell>
                <mxCell id="7" value="" style="aspect=fixed;html=1;points=[];align=center;image;fontSize=12;image=img/lib/azure2/general/Folder_Blank.svg;fontColor=#FFFFFF;fillColor=#FFFFFF;" vertex="1" parent="21">
                    <mxGeometry x="60" y="27.30000000000001" width="69" height="56.00000000000001" as="geometry"/>
                </mxCell>
                <mxCell id="19" value="" style="group" vertex="1" connectable="0" parent="21">
                    <mxGeometry width="50.80000000000001" height="90.60000000000002" as="geometry"/>
                </mxCell>
                <mxCell id="13" value="" style="verticalLabelPosition=bottom;html=1;verticalAlign=top;strokeWidth=1;align=center;outlineConnect=0;dashed=0;outlineConnect=0;shape=mxgraph.aws3d.file;aspect=fixed;strokeColor=#292929;fontSize=41;fontColor=#FFFFFF;fillColor=#FFFFFF;" vertex="1" parent="19">
                    <mxGeometry width="30.8" height="70.6" as="geometry"/>
                </mxCell>
                <mxCell id="14" value="" style="verticalLabelPosition=bottom;html=1;verticalAlign=top;strokeWidth=1;align=center;outlineConnect=0;dashed=0;outlineConnect=0;shape=mxgraph.aws3d.file;aspect=fixed;strokeColor=#292929;fontSize=41;fontColor=#FFFFFF;fillColor=#FFFFFF;" vertex="1" parent="19">
                    <mxGeometry x="10" y="10" width="30.8" height="70.6" as="geometry"/>
                </mxCell>
                <mxCell id="15" value="" style="verticalLabelPosition=bottom;html=1;verticalAlign=top;strokeWidth=1;align=center;outlineConnect=0;dashed=0;outlineConnect=0;shape=mxgraph.aws3d.file;aspect=fixed;strokeColor=#292929;fontSize=41;fontColor=#FFFFFF;fillColor=#FFFFFF;" vertex="1" parent="19">
                    <mxGeometry x="20" y="20" width="30.8" height="70.6" as="geometry"/>
                </mxCell>
                <mxCell id="20" value="" style="group" vertex="1" connectable="0" parent="21">
                    <mxGeometry x="130" y="12.699999999999989" width="50.80000000000001" height="90.59999999999997" as="geometry"/>
                </mxCell>
                <mxCell id="16" value="" style="verticalLabelPosition=bottom;html=1;verticalAlign=top;strokeWidth=1;align=center;outlineConnect=0;dashed=0;outlineConnect=0;shape=mxgraph.aws3d.file;aspect=fixed;strokeColor=#292929;fontSize=41;fontColor=#FFFFFF;fillColor=#FFFFFF;" vertex="1" parent="20">
                    <mxGeometry width="30.8" height="70.6" as="geometry"/>
                </mxCell>
                <mxCell id="17" value="" style="verticalLabelPosition=bottom;html=1;verticalAlign=top;strokeWidth=1;align=center;outlineConnect=0;dashed=0;outlineConnect=0;shape=mxgraph.aws3d.file;aspect=fixed;strokeColor=#292929;fontSize=41;fontColor=#FFFFFF;fillColor=#FFFFFF;" vertex="1" parent="20">
                    <mxGeometry x="10" y="10" width="30.8" height="70.6" as="geometry"/>
                </mxCell>
                <mxCell id="18" value="" style="verticalLabelPosition=bottom;html=1;verticalAlign=top;strokeWidth=1;align=center;outlineConnect=0;dashed=0;outlineConnect=0;shape=mxgraph.aws3d.file;aspect=fixed;strokeColor=#292929;fontSize=41;fontColor=#FFFFFF;fillColor=#FFFFFF;" vertex="1" parent="20">
                    <mxGeometry x="20" y="20" width="30.8" height="70.6" as="geometry"/>
                </mxCell>
                <mxCell id="22" value="" style="group" vertex="1" connectable="0" parent="1">
                    <mxGeometry x="390" y="370" width="180.8" height="103.29999999999995" as="geometry"/>
                </mxCell>
                <mxCell id="23" value="" style="aspect=fixed;html=1;points=[];align=center;image;fontSize=12;image=img/lib/azure2/general/Folder_Blank.svg;fontColor=#FFFFFF;fillColor=#FFFFFF;" vertex="1" parent="22">
                    <mxGeometry x="60" y="27.30000000000001" width="69" height="56.00000000000001" as="geometry"/>
                </mxCell>
                <mxCell id="24" value="" style="group" vertex="1" connectable="0" parent="22">
                    <mxGeometry width="50.80000000000001" height="90.60000000000002" as="geometry"/>
                </mxCell>
                <mxCell id="25" value="" style="verticalLabelPosition=bottom;html=1;verticalAlign=top;strokeWidth=1;align=center;outlineConnect=0;dashed=0;outlineConnect=0;shape=mxgraph.aws3d.file;aspect=fixed;strokeColor=#292929;fontSize=41;fontColor=#FFFFFF;fillColor=#FFFFFF;" vertex="1" parent="24">
                    <mxGeometry width="30.8" height="70.6" as="geometry"/>
                </mxCell>
                <mxCell id="26" value="" style="verticalLabelPosition=bottom;html=1;verticalAlign=top;strokeWidth=1;align=center;outlineConnect=0;dashed=0;outlineConnect=0;shape=mxgraph.aws3d.file;aspect=fixed;strokeColor=#292929;fontSize=41;fontColor=#FFFFFF;fillColor=#FFFFFF;" vertex="1" parent="24">
                    <mxGeometry x="10" y="10" width="30.8" height="70.6" as="geometry"/>
                </mxCell>
                <mxCell id="27" value="" style="verticalLabelPosition=bottom;html=1;verticalAlign=top;strokeWidth=1;align=center;outlineConnect=0;dashed=0;outlineConnect=0;shape=mxgraph.aws3d.file;aspect=fixed;strokeColor=#292929;fontSize=41;fontColor=#FFFFFF;fillColor=#FFFFFF;" vertex="1" parent="24">
                    <mxGeometry x="20" y="20" width="30.8" height="70.6" as="geometry"/>
                </mxCell>
                <mxCell id="28" value="" style="group" vertex="1" connectable="0" parent="22">
                    <mxGeometry x="130" y="12.699999999999989" width="50.80000000000001" height="90.59999999999997" as="geometry"/>
                </mxCell>
                <mxCell id="29" value="" style="verticalLabelPosition=bottom;html=1;verticalAlign=top;strokeWidth=1;align=center;outlineConnect=0;dashed=0;outlineConnect=0;shape=mxgraph.aws3d.file;aspect=fixed;strokeColor=#292929;fontSize=41;fontColor=#FFFFFF;fillColor=#FFFFFF;" vertex="1" parent="28">
                    <mxGeometry width="30.8" height="70.6" as="geometry"/>
                </mxCell>
                <mxCell id="30" value="" style="verticalLabelPosition=bottom;html=1;verticalAlign=top;strokeWidth=1;align=center;outlineConnect=0;dashed=0;outlineConnect=0;shape=mxgraph.aws3d.file;aspect=fixed;strokeColor=#292929;fontSize=41;fontColor=#FFFFFF;fillColor=#FFFFFF;" vertex="1" parent="28">
                    <mxGeometry x="10" y="10" width="30.8" height="70.6" as="geometry"/>
                </mxCell>
                <mxCell id="31" value="" style="verticalLabelPosition=bottom;html=1;verticalAlign=top;strokeWidth=1;align=center;outlineConnect=0;dashed=0;outlineConnect=0;shape=mxgraph.aws3d.file;aspect=fixed;strokeColor=#292929;fontSize=41;fontColor=#FFFFFF;fillColor=#FFFFFF;" vertex="1" parent="28">
                    <mxGeometry x="20" y="20" width="30.8" height="70.6" as="geometry"/>
                </mxCell>
                <mxCell id="38" value="" style="sketch=0;pointerEvents=1;shadow=0;dashed=0;html=1;strokeColor=none;fillColor=#505050;labelPosition=center;verticalLabelPosition=bottom;verticalAlign=top;outlineConnect=0;align=center;shape=mxgraph.office.communications.exchange_active_sync;fillColor=#2072B8;fontSize=41;fontColor=#898CBB;" vertex="1" parent="1">
                    <mxGeometry x="277.01" y="360" width="100" height="100" as="geometry"/>
                </mxCell>
            </root>
        </mxGraphModel>
    </diagram>
</mxfile>